<?xml version="1.0" encoding="utf-8"?>
<!-- Generator: Adobe Illustrator 21.0.0, SVG Export Plug-In . SVG Version: 6.00 Build 0)  -->
<svg version="1.1" id="Layer_1" xmlns="http://www.w3.org/2000/svg" xmlns:xlink="http://www.w3.org/1999/xlink" x="0px" y="0px"
	 viewBox="0 0 120 18" style="enable-background:new 0 0 120 18;" xml:space="preserve">
<style type="text/css">
	.st0{fill:#7F8FA4;}
</style>
<title>Artboard</title>
<desc>Created with Sketch.</desc>
<g id="Artboard">
	<g id="Group-19" transform="translate(0.000000, 2.000000)">
		<g id="Group-20">
			<g id="智能推荐logo">
				
					<rect id="Rectangle" x="55.8" y="4.6" transform="matrix(0.5 -0.866 0.866 0.5 25.7982 54.8626)" class="st0" width="9.2" height="1"/>
				
					<rect id="Rectangle_1_" x="55.8" y="8.7" transform="matrix(0.5 -0.866 0.866 0.5 22.2058 56.9367)" class="st0" width="9.2" height="1"/>
				<path id="Combined-Shape" class="st0" d="M70,2.1v1.5h2.9v0.6H70v0.6L69.8,5L67,7l-0.4-0.5l2.7-1.9V4.3h-2.9V3.7h2.9V2.1h-2.5
					L67,1.7l0.6-1.2l0.6,0.3l-0.4,0.7h4.9v0.6H70z M69.8,5.8h2.7v0.6h-2.7V5.8z M73.7,1.2h4.2l0.5,0.6v4.6h-4.7V1.2z M77.8,1.8h-3.5
					v4h3.5V1.8z M92.1,6.3h-5V0.4h0.7v2.2h4.4v0.7h-4.4v2.4h4.4V6.3z M80.5,0.4v3.2h4.8V1.8h0.6v2.5h-6.2V0.4H80.5z M80,12.9V5.4
					h5.6v7.6H85V6h-4.3v1.8v0.6v1.7v0.6v2.2H80z M92.1,12.9h-5v-6h0.7v1.6h4.3v0.6h-4.3v3.1h4.4V12.9z M102.1,2.6h0.7h2.9v0.7h-3
					v2.2h2.7v0.6h-2.7l0,2.4h2.7v0.6h-2.7v3h3v0.7H99h-0.6V7.2V3.6V0.4H99v2.2H102.1z M99,12.2h3.1v-3H99V12.2z M99,8.6h3V6.2h-3
					V8.6z M99,5.5h3V3.3h-3V5.5z M93,2.6h1.8V0.4h0.6v2.2h1.4v0.7h-1.4v5.2H97v0.6h-1.6v3.8h-2.4l0-0.7h1.8V9.1h-1.6V8.5h1.6V3.3H93
					V2.6z M106.5,1.5h2h2.4h3.6h2.4h2.1v0.6h-3h-0.7h-5.4h-0.7h-2.9V1.5z M106.5,4.1h4l0.9-1.1l0.5,0.4l-0.5,0.7h7.7v0.6h-8.2
					l-1.4,1.8l-0.6,0.8l-1.8,2.1l-0.4-0.6l3.4-4.2h-3.5V4.1z M109.6,8.9h0.5v4h-0.8V9.6l-2.9,0V8.9H109.6z M117.5,8.9
					c-0.1,0.1-0.1,0.3-0.1,0.4c0,0.1,0,0.1,0,0.2h-2v3.3h-3.3v-0.7h2.6V9.6h-4.3V8.9h4.4l0,0l2.4-2.1h-5.8V6.2h6.7v0.6l-2.4,2.1
					H117.5z"/>
				<path id="Combined-Shape_1_" class="st0" d="M74.6,9.7C74.6,9.7,74.6,9.8,74.6,9.7c0,0.3,0,0.4,0.1,0.6h-2.2l-2.4,2.6h-3.3V7.6
					H78v5.3h-2.1v-0.7h1.5V8.2h-9.9l0,3.9h2.5l2.3-2.5H74.6z"/>
				<polygon id="Line" class="st0" points="85.1,5.8 85.1,6.7 80.2,11.6 80.2,10.7 				"/>
				<polygon id="Line-Copy" class="st0" points="85.5,8.5 85.5,9.3 81.9,12.9 80.2,12.9 80.2,12.2 81.7,12.2 				"/>
				<rect id="Rectangle-15" x="115.4" y="0.4" class="st0" width="1" height="1.3"/>
				<rect id="Rectangle-15-Copy" x="109.6" y="0.4" class="st0" width="1" height="1.3"/>
				<path id="Path" class="st0" d="M102.3,1.8c0.5,0,0.9-0.4,0.9-0.9S102.8,0,102.3,0s-0.9,0.4-0.9,0.9S101.8,1.8,102.3,1.8z"/>
				<path id="Path_1_" class="st0" d="M52.5,1.8c0.5,0,0.9-0.4,0.9-0.9S53,0,52.5,0c-0.5,0-0.9,0.4-0.9,0.9S52,1.8,52.5,1.8z"/>
				<path id="Path_2_" class="st0" d="M118.5,10c0.4,0,0.7-0.3,0.7-0.7c0-0.4-0.3-0.7-0.7-0.7s-0.7,0.3-0.7,0.7
					C117.9,9.7,118.1,10,118.5,10z"/>
				<path id="Path_3_" class="st0" d="M75.7,10.5c0.4,0,0.7-0.3,0.7-0.7s-0.3-0.7-0.7-0.7s-0.7,0.3-0.7,0.7S75.4,10.5,75.7,10.5z"/>
				<path id="第四范式" class="st0" d="M5.9,13.4V9.7H5.3l-4.8,3.7L0,12.8l4.1-3.1H0.9v-3h5V5H0.7V4.3h11v3H6.6V9H12v4H8.8v-0.7
					h2.6V9.7H6.6v3.7H5.9z M5.9,9V7.3H1.6V9H5.9z M6.6,5v1.7H11V5H6.6z M1.9,0.6l-0.6,1h4.7v0.7H3.6v1.5H2.9V2.3H0.2l0.3-0.5
					l0.8-1.5L1.9,0.6z M8.6,0.6l-0.6,1h4.7v0.7h-2.5v1.5H9.6V2.3H6.9l0.3-0.5L8,0.3L8.6,0.6z M14.5,1.1H26V13H14.5V1.1z M19.1,1.7
					v7.1l-3.5,0V8.2h2.8V1.7h-3.3v10.5h10.2V1.7h-3.2v6.4l2.8,0v0.7h-3.5V1.7H19.1z M27.6,1.5h3V0.3h0.7v1.3h5.5V0.3h0.7v1.3h3v0.7
					h-3v1.3h-0.7V2.2h-5.5v1.3h-0.7V2.2h-3V1.5z M27.8,13.1l2.1-4.6L27.8,7l0.4-0.5l2.3,1.6l0.2,0.2l-0.1,0.2l-2.2,4.9L27.8,13.1z
					 M30.6,6l-2.7-1.9l0.4-0.5L31,5.5L30.6,6z M35.2,8.4h3.6V5h-5.9v7.3h7.6V13h-8.2V4.3h7.2V9h-4.2V8.4z M50.6,0.3v2.5h3.9v0.7
					h-3.9v8.8h3.9V13h-4.7V3.5h-8.2V2.8h8.2V0.3L50.6,0.3z M41.9,5.9h7.1v0.7h-3.3v5.7h3.3V13h-7.1v-0.7h3.2V6.6h-3.2V5.9z"/>
			</g>
		</g>
	</g>
</g>
</svg>
